<?xml version="1.0" encoding="utf-8"?>
<!-- Generator: Adobe Illustrator 25.3.0, SVG Export Plug-In . SVG Version: 6.00 Build 0)  -->
<svg version="1.1" id="Layer_1" xmlns="http://www.w3.org/2000/svg" xmlns:xlink="http://www.w3.org/1999/xlink" x="0px" y="0px"
	 viewBox="0 0 1950.3 153.3" style="enable-background:new 0 0 1950.3 153.3;" xml:space="preserve">
<style type="text/css">
	.st0{fill:#FFCD3C;}
</style>
<path class="st0" d="M0,88.1c0,0,20.4-47,81.7-43.3s79.6,48.8,79.6,48.8s16.3-46.1,65.4-44.2s76.6,46,76.6,46s17.4-49.7,70.5-47.9
	c53.1,1.8,60.2,38.9,60.2,38.9s13.3-56,56.2-52.3s49,37,49,37s5.1-31.6,42.9-42.4S640.2,70,640.2,70s22.5-38,54.1-35.2
	s36.8,28,36.8,28s2-33.4,60.2-34.3s59.2,35.2,59.2,35.2s21.4-35.2,62.3-36.1c40.8-0.9,68.4,33.4,71.5,41.5c0,0,10.2-38.9,56.2-46
	s68.4,45.1,68.4,45.1s8.2-45.1,66.4-51.5s93.9,48.8,93.9,48.8s4.1-37,52.1-42.4s63.3,41.5,63.3,41.5s18.4-39.7,65.4-43.3
	s68.4,42.4,68.4,42.4s11.2-36.1,59.2-38s74.5,26.2,82.7,38c0,0,9.2-35.2,64.3-30.7s66.4,31.6,66.4,31.6s10.2-34.3,57.2-29.7
	s63.3,42.4,63.3,42.4s14.3-32.5,38.8-36.1v112.1H0V88.1z"/>
</svg>
